<svg xmlns="http://www.w3.org/2000/svg" version="1.1" viewBox="0 0 128 128" width="128" height="128">
    <path style="fill:#E74D11" d="m 64,114.20113 q 18.921958,0 28.600164,-4.41673 9.678196,-4.41673 12.429596,-14.312144 l 4.58568,-16.556727 q 0.8206,-3.041027 1.97909,-4.296055 1.15848,-1.255032 3.9099,-2.172167 4.53741,-1.54465 6.51649,-3.740949 Q 124,66.510059 124,62.889788 q 0,-3.668549 -1.35157,-6.926789 -1.35157,-3.25825 -3.4996,-5.285607 -2.14803,-2.027349 -4.56155,-2.027349 -1.35156,0 -2.96862,0.555107 -1.61706,0.555107 -3.6444,1.7136 -7.43363,-5.358006 -15.832665,-8.567984 -8.399034,-3.209977 -18.439265,-4.127113 l -0.820598,3.861628 q 10.185041,0.917135 18.632348,4.199512 8.447304,3.282386 16.21882,9.171362 2.36525,-1.496377 4.05471,-2.220435 1.68946,-0.724049 2.79967,-0.724049 1.25503,0 2.55833,1.592921 1.3033,1.592913 2.14803,3.982299 0.84473,2.389377 0.84473,4.802898 0,2.220428 -1.23089,3.499592 -1.23089,1.279164 -4.60982,2.389385 -3.71681,1.206757 -5.50281,3.161706 -1.786,1.954946 -2.89622,5.961387 l -4.58568,16.55672 Q 98.947703,102.90588 90.186645,106.67097 81.425577,110.43605 64,110.43605 q -17.473858,0 -26.210781,-3.76508 -8.736926,-3.76509 -11.102168,-12.212391 L 22.101368,77.901859 Q 20.991151,73.895417 19.181013,71.940471 17.370877,69.985522 13.702333,68.778765 10.323411,67.668544 9.0925177,66.38938 7.8616243,65.110216 7.8616243,62.889788 q 0,-2.413521 0.8447306,-4.802898 0.8447306,-2.389386 2.1238941,-3.982299 1.279163,-1.59292 2.582462,-1.59292 1.061946,0 2.775543,0.724049 1.713597,0.724058 4.078842,2.220435 6.033791,-4.778763 12.864039,-7.771518 6.830248,-2.992756 14.987928,-4.392599 8.157684,-1.399844 18.197907,-1.399844 l -5.406275,-3.716813 q -12.115846,0.289621 -22.252612,3.451328 -10.136761,3.161706 -18.632339,9.292041 -2.027353,-1.158493 -3.644409,-1.7136 -1.617055,-0.555107 -2.968624,-0.555107 -2.413516,0 -4.5615452,2.027349 -2.148029,2.027356 -3.4995974,5.285606 -1.3515694,3.258241 -1.3515694,6.92679 0,3.620271 1.9549481,5.81657 1.9549472,2.196299 6.5406269,3.740949 2.751409,0.917136 3.909896,2.172168 1.158488,1.255028 1.979083,4.296055 L 22.97023,95.472257 Q 25.721644,105.36767 35.399842,109.7844 45.078038,114.20113 64,114.20113 Z M 77.032986,72.109415 q -1.689459,0 -3.016894,-0.458564 -1.327438,-0.458572 -1.327438,-0.989543 0,-2.413521 2.316979,-4.102978 2.316965,-1.689463 5.599359,-1.689463 1.93081,0 3.185841,0.868864 1.255022,0.868871 1.255022,2.220436 0,0.820599 -1.327435,1.810142 -1.327434,0.989535 -3.18584,1.665321 -1.858407,0.675786 -3.499594,0.675785 z M 63.42075,70.613036 q -1.882541,0 -3.01689,-0.579243 -1.13435,-0.579241 -1.13435,-1.496377 0,-3.378928 4.344325,-3.378928 1.061942,0 2.172164,1.158493 1.110214,1.158485 1.110214,2.220435 0,0.917136 -0.989535,1.496377 -0.989543,0.579243 -2.485928,0.579243 z m -15.012066,1.54465 q -1.399834,0 -2.606591,-1.351572 -1.206754,-1.351562 -1.206754,-2.847948 0,-2.123893 3.041024,-2.123893 1.206757,0 2.582464,0.796466 1.3757,0.796456 2.365242,1.882541 0.989543,1.086078 0.989543,2.003213 0,0.868864 -1.206757,1.255029 -1.206756,0.386164 -3.958171,0.386164 z M 64.675777,47.539821 q 5.551092,0 9.074825,-2.944485 3.523725,-2.944492 3.523725,-7.723255 0,-3.668542 -2.799675,-6.733705 -2.799676,-3.065163 -10.378117,-6.347548 l -2.896211,-1.255029 q -4.19952,-1.834271 -5.74417,-2.920356 -1.54465,-1.086078 -1.54465,-2.292835 0,-1.689464 1.592922,-3.523735 -5.551092,0 -9.074819,2.872085 -3.523732,2.872085 -3.523732,7.65084 0,3.66855 2.799674,6.733713 2.799678,3.065164 10.378119,6.347548 l 2.896221,1.25503 q 4.199511,1.785998 5.74416,2.896221 1.544649,1.110213 1.544649,2.31697 0,1.834271 -1.592921,3.668541 z m 4.875307,-5.16492 q 0,-1.882542 -2.051493,-3.499599 -2.051485,-1.617057 -6.878517,-3.692678 L 57.724861,33.927596 Q 51.44972,31.224453 49.108606,29.05229 46.7675,26.880126 46.7675,24.225263 q 0,-2.075629 1.086077,-3.54787 1.086087,-1.472243 2.775542,-1.858407 0,1.882542 2.051493,3.475463 2.051485,1.592921 6.87852,3.716813 l 2.896218,1.255029 q 6.275141,2.703135 8.616247,4.875305 2.341115,2.172164 2.341115,4.827028 0,2.075628 -1.110223,3.547871 -1.110213,1.472241 -2.751405,1.858406 z m 32.968626,21.383751 q 0,-3.42719 -3.089298,-6.468227 -3.089295,-3.041027 -8.447304,-5.406269 -5.35801,-2.36525 -12.308935,-3.716821 Q 71.723248,46.815771 64,46.815771 q -7.723253,0 -14.67418,1.351564 -6.950916,1.351571 -12.308922,3.716821 -5.358006,2.365242 -8.447304,5.406269 -3.089308,3.041037 -3.089308,6.468227 0,3.378921 2.992764,6.371677 2.992757,2.992765 8.278363,5.237338 5.285599,2.244571 12.284785,3.523735 6.999199,1.279157 14.963802,1.279157 7.964597,0 14.963795,-1.279157 6.999197,-1.279164 12.284794,-3.523735 5.285606,-2.244573 8.278357,-5.237338 2.992764,-2.992756 2.992764,-6.371677 z m -3.861629,0 q 0,2.123892 -2.413508,4.247785 Q 95.279164,66.027359 92.189867,64.19308 89.100561,62.35881 84.587286,60.910704 80.074011,59.462589 74.740142,58.617861 69.406269,57.773133 64,57.773133 q -5.406276,0 -10.740145,0.844728 -5.33387,0.844728 -9.847145,2.292843 -4.513269,1.448106 -7.602569,3.282376 -3.089307,1.834279 -4.054713,3.813357 -2.413513,-2.123893 -2.413513,-4.247785 0,-2.413519 2.944491,-4.754626 2.944485,-2.341114 7.940462,-4.223657 4.995985,-1.882543 11.150445,-2.992756 Q 57.531775,50.677391 64,50.677391 q 6.419947,0 12.598558,1.110222 6.178594,1.110213 11.174568,2.992756 4.995975,1.882542 7.940475,4.223656 2.94448,2.341107 2.94448,4.754627 z"/>
</svg>
